<mxfile host="Electron" agent="Mozilla/5.0 (Windows NT 10.0; Win64; x64) AppleWebKit/537.36 (KHTML, like Gecko) draw.io/26.1.1 Chrome/132.0.6834.210 Electron/34.3.3 Safari/537.36" version="26.1.1">
  <diagram name="Page-1" id="3PahXT0Nyxej_aBs9lzx">
    <mxGraphModel dx="1034" dy="557" grid="1" gridSize="10" guides="1" tooltips="1" connect="1" arrows="1" fold="1" page="1" pageScale="1" pageWidth="850" pageHeight="1100" math="0" shadow="0">
      <root>
        <mxCell id="0" />
        <mxCell id="1" parent="0" />
        <mxCell id="P-vczYRkIBbIJYdhzwFe-19" style="edgeStyle=orthogonalEdgeStyle;rounded=0;orthogonalLoop=1;jettySize=auto;html=1;exitX=0.5;exitY=1;exitDx=0;exitDy=0;exitPerimeter=0;entryX=0.5;entryY=0;entryDx=0;entryDy=0;" parent="1" source="P-vczYRkIBbIJYdhzwFe-1" target="P-vczYRkIBbIJYdhzwFe-5" edge="1">
          <mxGeometry relative="1" as="geometry" />
        </mxCell>
        <mxCell id="P-vczYRkIBbIJYdhzwFe-1" value="" style="strokeWidth=2;html=1;shape=mxgraph.flowchart.start_1;whiteSpace=wrap;" parent="1" vertex="1">
          <mxGeometry x="400" y="70" width="60" height="50" as="geometry" />
        </mxCell>
        <mxCell id="P-vczYRkIBbIJYdhzwFe-15" style="edgeStyle=orthogonalEdgeStyle;rounded=0;orthogonalLoop=1;jettySize=auto;html=1;entryX=0.5;entryY=0;entryDx=0;entryDy=0;" parent="1" source="P-vczYRkIBbIJYdhzwFe-5" target="P-vczYRkIBbIJYdhzwFe-7" edge="1">
          <mxGeometry relative="1" as="geometry" />
        </mxCell>
        <mxCell id="P-vczYRkIBbIJYdhzwFe-5" value="" style="rounded=0;whiteSpace=wrap;html=1;" parent="1" vertex="1">
          <mxGeometry x="370" y="170" width="120" height="40" as="geometry" />
        </mxCell>
        <mxCell id="P-vczYRkIBbIJYdhzwFe-7" value="" style="rounded=0;whiteSpace=wrap;html=1;" parent="1" vertex="1">
          <mxGeometry x="180" y="250" width="130" height="90" as="geometry" />
        </mxCell>
        <mxCell id="P-vczYRkIBbIJYdhzwFe-9" value="" style="rounded=0;whiteSpace=wrap;html=1;" parent="1" vertex="1">
          <mxGeometry x="365" y="260" width="130" height="90" as="geometry" />
        </mxCell>
        <mxCell id="P-vczYRkIBbIJYdhzwFe-10" value="" style="rounded=0;whiteSpace=wrap;html=1;" parent="1" vertex="1">
          <mxGeometry x="20" y="250" width="130" height="90" as="geometry" />
        </mxCell>
        <mxCell id="P-vczYRkIBbIJYdhzwFe-14" style="edgeStyle=orthogonalEdgeStyle;rounded=0;orthogonalLoop=1;jettySize=auto;html=1;exitX=0;exitY=0.5;exitDx=0;exitDy=0;entryX=0.333;entryY=0.022;entryDx=0;entryDy=0;entryPerimeter=0;" parent="1" source="P-vczYRkIBbIJYdhzwFe-5" target="P-vczYRkIBbIJYdhzwFe-10" edge="1">
          <mxGeometry relative="1" as="geometry" />
        </mxCell>
        <mxCell id="ShTk6SEzflu5TJvImfg7-8" value="" style="edgeStyle=orthogonalEdgeStyle;rounded=0;orthogonalLoop=1;jettySize=auto;html=1;" edge="1" parent="1" source="P-vczYRkIBbIJYdhzwFe-20" target="P-vczYRkIBbIJYdhzwFe-32">
          <mxGeometry relative="1" as="geometry" />
        </mxCell>
        <mxCell id="P-vczYRkIBbIJYdhzwFe-20" value="Welcome Screen" style="text;strokeColor=none;align=center;fillColor=none;html=1;verticalAlign=middle;whiteSpace=wrap;rounded=0;" parent="1" vertex="1">
          <mxGeometry x="400" y="175" width="60" height="30" as="geometry" />
        </mxCell>
        <mxCell id="P-vczYRkIBbIJYdhzwFe-21" value="1. Account Services" style="text;strokeColor=none;align=center;fillColor=none;html=1;verticalAlign=middle;whiteSpace=wrap;rounded=0;" parent="1" vertex="1">
          <mxGeometry y="220" width="60" height="30" as="geometry" />
        </mxCell>
        <mxCell id="P-vczYRkIBbIJYdhzwFe-22" value="2. Transfers" style="text;strokeColor=none;align=center;fillColor=none;html=1;verticalAlign=middle;whiteSpace=wrap;rounded=0;" parent="1" vertex="1">
          <mxGeometry x="180" y="220" width="60" height="30" as="geometry" />
        </mxCell>
        <mxCell id="P-vczYRkIBbIJYdhzwFe-26" value="Start" style="text;strokeColor=none;align=center;fillColor=none;html=1;verticalAlign=middle;whiteSpace=wrap;rounded=0;" parent="1" vertex="1">
          <mxGeometry x="395" y="80" width="60" height="30" as="geometry" />
        </mxCell>
        <mxCell id="P-vczYRkIBbIJYdhzwFe-27" value="1.1 Check Balance" style="text;strokeColor=none;align=center;fillColor=none;html=1;verticalAlign=middle;whiteSpace=wrap;rounded=0;" parent="1" vertex="1">
          <mxGeometry x="20" y="260" width="130" height="70" as="geometry" />
        </mxCell>
        <mxCell id="P-vczYRkIBbIJYdhzwFe-29" value="&lt;br&gt;&lt;div&gt;2.1 To Another Account&lt;/div&gt;&lt;div&gt;&lt;br&gt;&lt;/div&gt;" style="text;strokeColor=none;align=center;fillColor=none;html=1;verticalAlign=middle;whiteSpace=wrap;rounded=0;" parent="1" vertex="1">
          <mxGeometry x="175" y="260" width="140" height="70" as="geometry" />
        </mxCell>
        <mxCell id="P-vczYRkIBbIJYdhzwFe-32" value="&lt;div&gt;3.1 Verify PIN&lt;/div&gt;&lt;div&gt;3.2 Change PIN&lt;/div&gt;" style="text;strokeColor=none;align=center;fillColor=none;html=1;verticalAlign=middle;whiteSpace=wrap;rounded=0;" parent="1" vertex="1">
          <mxGeometry x="360" y="270" width="140" height="70" as="geometry" />
        </mxCell>
        <mxCell id="ShTk6SEzflu5TJvImfg7-9" value="3. Settings" style="text;strokeColor=none;align=center;fillColor=none;html=1;verticalAlign=middle;whiteSpace=wrap;rounded=0;" vertex="1" parent="1">
          <mxGeometry x="350" y="220" width="60" height="30" as="geometry" />
        </mxCell>
      </root>
    </mxGraphModel>
  </diagram>
</mxfile>
